<svg viewBox="0 0 48 48" xmlns="http://www.w3.org/2000/svg"><path d="m7 31h10v10h-10z" fill="#00bcd4"/><path d="m35.3 19.3-5.6-5.6c-.4-.4-.4-1 0-1.4l5.6-5.6c.4-.4 1-.4 1.4 0l5.6 5.6c.4.4.4 1 0 1.4l-5.6 5.6c-.4.4-1 .4-1.4 0z" fill="#00bcd4"/><circle cx="12" cy="13" fill="#3f51b5" r="6"/><circle cx="36" cy="36" fill="#448aff" r="6"/><g fill="#90a4ae"><g><path d="m11 24h2v5h-2z"/><path d="m12 21-3 4h6z"/></g><g><path d="m20 12h5v2h-5z"/><path d="m28 13-4-3v6z"/></g><g><path d="m35 21h2v5h-2z"/><path d="m36 29 3-4h-6z"/></g></g></svg>